Coordinates
version=1
nRows=12
nColumns=34
inDegrees=yes

Units are S.I. units (second, meters, Newtons, ...)
If the header above contains a line with 'inDegrees', this indicates whether rotational values are in degrees (yes) or radians (no).

endheader
time	pelvis_tilt	pelvis_list	pelvis_rotation	pelvis_tx	pelvis_ty	pelvis_tz	hip_flexion_r	hip_adduction_r	hip_rotation_r	knee_angle_r	ankle_angle_r	subtalar_angle_r	mtp_angle_r	hip_flexion_l	hip_adduction_l	hip_rotation_l	knee_angle_l	ankle_angle_l	subtalar_angle_l	mtp_angle_l	lumbar_extension	lumbar_bending	lumbar_rotation	arm_flex_r	arm_add_r	arm_rot_r	elbow_flex_r	pro_sup_r	arm_flex_l	arm_add_l	arm_rot_l	elbow_flex_l	pro_sup_l
      6.95000000	     -5.94715680	     -0.12579042	      1.02213870	      0.30064224	      0.93149340	     -0.02345056	      3.85532831	     -2.64168965	     -5.96240250	      0.00000000	      8.71617325	     -2.81716562	      0.00000000	      4.60450794	     -5.11302341	     -4.86373307	      0.00000000	      3.58873729	     -3.26371582	      0.00000000	      8.50637267	      2.27396875	      3.19593622	     61.91987149	      5.33583819	     62.53087976	    117.17423632	     96.96375613	     57.47344867	     10.84566838	     67.64459682	    120.11367028	     75.63669900
      6.96666670	     -5.97254161	     -0.13236033	      0.96074516	      0.30089306	      0.93638717	     -0.02377164	      3.89214087	     -2.60537531	     -5.92958176	      0.00000000	      8.75606434	     -2.82032036	      0.00000000	      4.70278589	     -5.16556033	     -4.86070725	      0.00000000	      3.60102134	     -3.27506177	      0.00000000	      8.36878186	      2.16008926	      3.11871821	     61.91324696	      5.26950170	     62.48404550	    117.03474480	     96.97148642	     57.41739396	     10.77814756	     67.66406013	    120.09259460	     75.64297462
      6.98333330	     -5.83076070	      0.03377234	      0.77385704	      0.29975196	      0.93288331	     -0.02252560	      3.71037499	     -2.76423260	     -5.69980941	      0.00000000	      8.83447828	     -2.83718261	      0.00000000	      4.44363826	     -5.02008143	     -5.10132413	      0.00000000	      3.32303802	     -3.46196762	      0.00000000	      8.61893473	      1.97930453	      2.82663411	     62.03554637	      5.62700498	     61.92829161	    115.57538646	     97.07768404	     57.74230555	     10.41347566	     67.64184274	    120.12688098	     75.73298291
      7.00000000	     -5.76494460	      0.02203193	      0.60663346	      0.29640920	      0.93047295	     -0.02366315	      3.62511806	     -2.72570125	     -5.75114902	      0.00000000	      8.79100268	     -2.85243992	      0.00000000	      4.37715430	     -5.05622673	     -5.11800431	      0.00000000	      3.29236906	     -3.47661094	      0.00000000	      8.83434418	      1.90723770	      2.78443783	     62.12752467	      5.72105221	     61.91946021	    115.57190774	     97.08488195	     57.77240127	     10.50799719	     67.63154820	    120.17284432	     75.73778247
      7.01666670	     -5.70753480	      0.18640251	      0.10355606	      0.30311067	      0.94652274	     -0.02132527	      3.61444191	     -2.85164113	     -5.70198010	      0.00000000	      8.27746046	     -2.59885769	      0.00000000	      4.26355324	     -4.98273885	     -5.66025110	      0.00000000	      2.36355006	     -3.63953883	      0.00000000	      8.94046831	      1.77581363	      3.07740284	     61.56710246	      5.86234615	     62.26665023	    114.69608392	     97.21648948	     56.53769299	     10.51762393	     68.42308114	    121.17184902	     75.84181483
      7.03333330	     -5.81054055	      0.03497302	     -0.01101786	      0.30076466	      0.93712526	     -0.02127717	      3.77956039	     -2.65634796	     -5.55761434	      0.00000000	      8.23582068	     -2.49832653	      0.00000000	      4.36109137	     -5.15016332	     -5.73347996	      0.00000000	      2.38830338	     -3.73345621	      0.00000000	      8.98923723	      1.87220636	      3.06363874	     61.98110218	      5.78249197	     62.07532254	    114.40962054	     97.24842928	     56.99228308	     10.07411407	     68.19982377	    121.02965649	     75.85754602
      7.05000000	     -5.72810933	      0.11572831	     -0.43665466	      0.30112075	      0.94701340	     -0.02099811	      3.75569746	     -2.70854448	     -5.46071571	      0.00000000	      8.14213020	     -2.05452863	      0.00000000	      4.16029019	     -5.12790637	     -6.27686577	      0.00000000	      1.72511857	     -3.70196722	      0.00000000	      9.00137443	      1.97489564	      3.01863177	     61.79501697	      6.19132143	     62.31282210	    112.92263220	     97.46200070	     56.60411525	      9.30879301	     68.12787771	    120.16907451	     75.96613006
      7.06666670	     -5.61829383	      0.07328608	     -0.74223192	      0.29674307	      0.93877166	     -0.02138811	      3.76213443	     -2.66140490	     -5.41875481	      0.00000000	      8.07633566	     -1.86553493	      0.00000000	      3.98492416	     -5.14072275	     -6.51777018	      0.00000000	      1.76772342	     -3.81976914	      0.00000000	      8.83992157	      2.07781450	      2.46734599	     62.06602599	      6.67211073	     62.27391001	    112.06286476	     97.63523864	     57.01148916	      8.02442563	     66.94353387	    118.28909106	     75.99112028
      7.08333330	     -5.48615464	      0.05219848	     -0.76857307	      0.29827243	      0.94059892	     -0.02105287	      3.66254906	     -2.61580810	     -5.47138348	      0.00000000	      8.01900578	     -1.68548056	      0.00000000	      3.82000866	     -5.15838124	     -6.66271508	      0.00000000	      1.73862568	     -3.77724390	      0.00000000	      8.44530825	      2.03079217	      2.01887664	     62.58442990	      6.94317706	     62.06545974	    110.83780613	     97.79041075	     57.55868173	      6.60288579	     65.16646068	    115.07004385	     75.93876083
      7.10000000	     -5.32441650	      0.07822320	     -0.90694919	      0.29857380	      0.93949787	     -0.02036644	      3.50577428	     -2.63252381	     -5.42303676	      0.00000000	      8.07662475	     -1.46534306	      0.00000000	      3.62770908	     -5.13335781	     -6.74084072	      0.00000000	      1.84818479	     -3.71074636	      0.00000000	      7.95511665	      1.87574597	      1.52482211	     63.12407236	      7.30173308	     61.79657881	    109.31500282	     97.95469507	     57.96066884	      5.20216812	     62.89704410	    111.28478828	     75.81659087
      7.11666670	     -5.10546687	      0.08109390	     -1.03448049	      0.29846985	      0.94033608	     -0.01993276	      3.31001472	     -2.62063099	     -5.32597777	      0.00000000	      8.21102513	     -1.30356266	      0.00000000	      3.40038549	     -5.11807926	     -6.87683991	      0.00000000	      2.00584971	     -3.70504067	      0.00000000	      7.60292753	      1.79811912	      1.20314935	     63.49430236	      7.41311594	     61.59685279	    107.16587608	     98.11102851	     57.85005360	      4.15931833	     60.36645971	    107.53555512	     75.64555267
      7.13333330	     -5.02924362	      0.07208757	     -0.93162498	      0.29817303	      0.94082120	     -0.01884569	      3.23899083	     -2.59089589	     -5.43516599	      0.00000000	      8.03497617	     -1.24558757	      0.00000000	      3.40474646	     -5.13377310	     -7.01339782	      0.00000000	      1.92157268	     -3.72751501	      0.00000000	      7.34868437	      1.68883917	      1.48174516	     64.18881973	      7.11456023	     61.37013658	    105.30747601	     98.23176576	     57.71171890	      3.78586415	     57.98379371	    104.65480377	     75.52249761
